<svg width="20" height="20" viewBox="0 0 20 20" fill="none" xmlns="http://www.w3.org/2000/svg">
<path d="M9.99916 4.28564C9.2928 4.28564 8.6023 4.49511 8.01499 4.88754C7.42767 5.27997 6.96991 5.83775 6.69959 6.49035C6.42928 7.14294 6.35856 7.86103 6.49636 8.55382C6.63416 9.24661 6.97431 9.88298 7.47378 10.3825C7.97326 10.8819 8.60962 11.2221 9.30241 11.3599C9.9952 11.4977 10.7133 11.427 11.3659 11.1566C12.0185 10.8863 12.5763 10.4286 12.9687 9.84125C13.3611 9.25393 13.5706 8.56343 13.5706 7.85707C13.5706 6.90987 13.1943 6.00146 12.5245 5.33169C11.8548 4.66192 10.9464 4.28564 9.99916 4.28564ZM9.99916 9.99993C9.57535 9.99993 9.16105 9.87425 8.80866 9.63879C8.45627 9.40333 8.18161 9.06866 8.01942 8.67711C7.85723 8.28555 7.8148 7.8547 7.89748 7.43902C7.98016 7.02335 8.18425 6.64153 8.48394 6.34184C8.78362 6.04216 9.16544 5.83807 9.58111 5.75539C9.99679 5.67271 10.4276 5.71514 10.8192 5.87733C11.2108 6.03952 11.5454 6.31417 11.7809 6.66656C12.0163 7.01896 12.142 7.43326 12.142 7.85707C12.1415 8.42522 11.9155 8.96993 11.5138 9.37167C11.112 9.77342 10.5673 9.99936 9.99916 9.99993Z" stroke="none"/>
<path d="M10 0C8.02219 0 6.08879 0.58649 4.4443 1.6853C2.79981 2.78412 1.51809 4.3459 0.761209 6.17316C0.00433283 8.00043 -0.1937 10.0111 0.192152 11.9509C0.578004 13.8907 1.53041 15.6725 2.92894 17.0711C4.32746 18.4696 6.10929 19.422 8.0491 19.8078C9.98891 20.1937 11.9996 19.9957 13.8268 19.2388C15.6541 18.4819 17.2159 17.2002 18.3147 15.5557C19.4135 13.9112 20 11.9778 20 10C19.997 7.34876 18.9424 4.80698 17.0677 2.93227C15.193 1.05756 12.6512 0.0030248 10 0V0ZM5.71429 17.4121V16.4286C5.71486 15.8604 5.9408 15.3157 6.34254 14.914C6.74428 14.5122 7.289 14.2863 7.85715 14.2857H12.1429C12.711 14.2863 13.2557 14.5122 13.6575 14.914C14.0592 15.3157 14.2851 15.8604 14.2857 16.4286V17.4121C12.9851 18.1716 11.5061 18.5718 10 18.5718C8.49392 18.5718 7.01488 18.1716 5.71429 17.4121V17.4121ZM15.7086 16.3757C15.6943 15.4388 15.3126 14.545 14.6457 13.8868C13.9787 13.2287 13.0799 12.8589 12.1429 12.8571H7.85715C6.92013 12.8589 6.02132 13.2287 5.35435 13.8868C4.68739 14.545 4.30567 15.4388 4.29143 16.3757C2.99612 15.2191 2.08267 13.6963 1.67203 12.009C1.26139 10.3218 1.37293 8.54953 1.99189 6.92704C2.61084 5.30455 3.70802 3.90833 5.13813 2.92326C6.56823 1.93819 8.26382 1.41073 10.0004 1.41073C11.7369 1.41073 13.4325 1.93819 14.8626 2.92326C16.2927 3.90833 17.3899 5.30455 18.0088 6.92704C18.6278 8.54953 18.7393 10.3218 18.3287 12.009C17.9181 13.6963 17.0046 15.2191 15.7093 16.3757H15.7086Z" stroke="none"/>
</svg>
